<svg width="107" height="107" viewBox="0 0 107 107" fill="none" xmlns="http://www.w3.org/2000/svg">
<g clip-path="url(#clip0_24_34)">
<path d="M52.7026 -0.000203939C79.742 -0.38223 105.143 20.2035 106.923 51.3441C108.551 79.8323 85.1914 105.395 56.1972 106.923C26.5915 108.484 1.33215 85.5627 0.0435175 55.3826C-1.21235 25.792 22.3106 0.578292 52.7026 -0.000203939Z" fill="#AF8260"/>
<path d="M94.2228 63.8638C93.5676 70.3801 90.357 75.5647 85.5737 79.8107C78.3443 86.2069 69.6733 89.3067 60.2161 90.4747C59.2333 90.5947 58.2504 90.693 57.2676 90.8021C56.9727 91.1514 56.5686 91.2278 56.1427 91.2278C54.0678 91.2496 51.9929 91.2496 49.918 91.2278C49.4921 91.2278 49.088 91.1405 48.8041 90.7803C42.6121 90.0926 36.5949 88.7064 30.9271 86.0432C24.5713 83.0524 19.2311 78.8611 15.6273 72.705C14.0329 69.9762 13.0501 67.0292 12.788 63.8638C12.9299 63.7983 13.0501 63.711 13.2139 63.6892C18.9799 63.2307 24.7569 63.2635 30.523 63.1762C38.3312 63.0561 46.1285 63.3508 53.9258 63.1762C65.3706 62.9142 76.8263 63.1543 88.2711 63.0343C90.3242 63.0124 92.2244 63.6783 94.2228 63.8638Z" fill="#322C2B"/>
<path d="M78.2242 38.5191C79.6548 39.567 81.1072 40.5712 82.7125 41.3352C84.2305 42.0556 84.9731 43.2235 84.8857 44.959C84.7984 46.8255 84.7875 48.7138 84.8202 50.5802C84.8311 51.3661 84.6237 51.7591 83.7828 51.6936C83.4224 51.6717 83.0511 51.77 82.6907 51.7591C81.7625 51.7372 80.7578 52.545 79.9933 52.0429C79.207 51.5299 79.5893 50.2855 79.1634 49.4451C78.9886 48.4846 77.8856 47.535 79.1524 46.5744C79.2835 46.4762 79.3272 46.498 79.2398 46.498C77.5253 46.498 78.6392 44.9044 78.0167 44.2932C77.8856 43.9767 77.7983 43.6383 77.6454 43.3982C77.8638 43.7911 78.0167 44.2823 78.1587 44.7844C78.4098 46.5635 78.8794 48.3099 78.8467 50.1218C79.0323 52.8506 79.0323 52.8615 81.6423 52.5777C83.5534 52.3703 85.4645 52.1411 87.3647 51.89C88.2384 51.77 88.839 52.0647 89.3523 52.7742C90.4771 54.335 91.6893 55.8304 92.8469 57.3694C94.6051 59.7052 94.5942 59.8144 92.9779 62.2702C90.63 63.6128 88.0964 62.9361 85.6284 62.9361C85.126 62.9361 84.711 62.6304 84.6892 62.0629C84.6673 61.4407 85.0714 61.0914 85.6393 61.015C86.1635 60.9495 86.6767 60.7858 87.2228 60.7858C85.7376 61.0186 84.6783 60.8658 84.0449 60.3274C84.8748 61.7354 84.5035 62.8378 83.0511 62.9579C80.8124 63.1434 78.5736 63.0889 76.324 62.9797C75.1337 62.9251 74.7951 62.172 75.0463 61.146C75.221 60.4474 75.4722 59.7598 75.7343 59.0721C75.9309 58.57 76.0837 58.0243 75.2647 57.8933C74.5112 57.9916 73.7249 57.9697 73.157 58.6137C72.753 58.8429 72.4472 59.2359 71.9558 59.2795C71.3224 59.3232 70.7108 59.2686 70.1102 59.0285C68.3301 58.3081 66.5282 57.6641 64.5953 57.5004C64.1912 57.3148 63.7435 57.1838 63.4159 56.8564C62.6296 56.3652 62.2474 55.6666 62.0508 54.728C61.4501 51.9337 60.9478 49.1395 60.915 46.2688C62.3566 44.1295 64.2786 42.5577 66.6811 41.5863C67.6094 40.9095 68.4503 40.0254 69.7826 40.3638C71.0712 40.5384 71.9885 39.698 73.0041 39.1631C73.6703 38.661 74.3692 38.2354 75.1446 37.9297C76.8154 37.122 77.1758 37.1875 78.2569 38.4973L78.2242 38.5191Z" fill="#803D3B"/>
<path d="M16.8395 57.2602C16.2608 55.874 16.228 54.4333 16.4792 52.9925C16.643 52.0538 17.1453 51.2897 18.1937 51.2461C19.2967 51.2024 19.3185 50.7003 19.0346 49.8271C18.5868 48.4409 18.3247 46.9892 17.8333 45.6139C16.8832 42.9506 18.0954 40.9423 19.7117 39.0758C20.4979 38.1808 21.6555 38.4427 22.3435 39.4688C22.6275 39.8944 22.4746 40.7458 23.3373 40.6367C24.2328 40.5166 24.2328 39.7525 24.3638 39.0976C24.1673 36.9256 26.2749 36.2488 27.2032 34.808C27.8257 33.8475 29.4965 34.3714 29.9989 35.5066C30.7415 37.1984 30.7415 37.1875 32.5543 36.7727C33.5153 36.5544 34.5091 36.5326 34.9568 37.6132C35.5574 39.054 36.6167 39.3378 38.0037 39.1304C38.8555 39.0103 39.5653 39.3269 39.9803 40.0909C40.3407 40.7567 40.155 41.4335 39.7291 42.001C39.2268 42.6669 38.4842 42.9725 37.6651 42.907C36.3874 42.8088 35.4046 43.1362 34.9131 44.4351C34.7602 44.8499 34.3453 45.0245 33.9521 45.1773C33.3952 45.3956 32.9147 45.7558 32.7509 46.3343C32.4997 47.1857 32.0519 47.7751 31.2001 48.1462C30.3592 48.5173 30.3702 49.3687 30.3483 50.1764C30.2719 53.1235 30.392 56.0705 30.4138 59.0176C30.4357 61.3534 29.8787 61.9537 27.5963 61.8664C24.6259 61.7572 21.6555 61.91 18.6851 61.7791C16.7849 61.6917 16.2717 61.0478 16.6321 59.214C16.7522 58.581 17.2545 57.9588 16.8286 57.2712L16.8395 57.2602Z" fill="#E4C59E"/>
<path d="M59.1132 43.8456C58.4142 43.671 57.8245 44.1949 57.1365 44.184C56.7762 43.7474 57.1365 43.3763 57.2676 43.027C60.4892 34.1094 63.7217 25.2028 66.9869 16.2961C68.2209 12.9234 71.4425 12.0283 73.6812 14.3751C74.8716 15.6303 74.9043 17.0383 74.3365 18.5774C72.2179 24.406 70.1211 30.2346 68.0135 36.0632C67.3801 37.8315 66.7139 39.5779 66.0587 41.3352C65.6983 42.3394 64.8574 42.8305 63.951 43.2562C63.0883 43.289 62.302 43.5291 61.5812 44.0203C61.0461 44.3914 60.4673 44.7407 59.7466 44.5005C59.4299 44.3805 59.3316 44.053 59.1132 43.8456Z" fill="#322C2B"/>
<path d="M70.0993 40.0582C69.4332 39.6652 69.3786 39.2723 69.7935 38.5519C73.5175 32.1666 77.1977 25.7486 80.867 19.3305C81.7734 17.7479 82.9092 16.5035 84.9077 16.6454C87.8781 16.8528 89.3851 19.9418 87.8125 22.7142C84.9841 27.7024 82.0901 32.636 79.218 37.6023C78.803 38.0716 78.1696 38.3227 77.7219 37.9952C76.608 37.1766 75.8217 37.8642 74.9699 38.3882C74.2273 38.8029 73.5393 39.2941 72.7749 39.6871C71.9012 39.949 71.1368 40.9641 70.0993 40.08V40.0582Z" fill="#322C2B"/>
<path d="M74.8279 56.6708C75.1337 56.6599 75.4504 56.6163 75.7562 56.6381C76.8264 56.7472 77.4052 57.1293 76.7172 58.3081C76.3568 58.9302 76.1384 59.6397 75.8545 60.3165C75.0791 62.2266 75.1665 62.3685 77.154 62.3794C78.9232 62.3903 80.7032 62.4012 82.4724 62.3794C83.9466 62.3576 84.2415 61.8555 83.5207 60.5566C83.0948 59.7816 82.5706 59.0721 81.9918 58.1662C83.7064 58.2644 83.9248 60.3601 85.3882 60.4365C86.7314 60.502 88.0855 60.4474 89.811 60.4474C88.1074 61.2988 86.3819 61.1678 85.0387 62.1829C87.6924 62.3685 90.3352 62.4885 92.9889 62.2593C92.4756 62.947 91.9733 63.6237 93.4912 63.4818C93.8079 63.4491 94.0919 63.5255 94.2338 63.8529C86.1417 63.8311 78.0495 63.7984 69.9573 63.7984C51.4251 63.7984 32.8928 63.7984 14.3606 63.7984C13.8364 63.7984 13.3231 63.8311 12.799 63.8529C13.76 63.0452 14.8739 63.6674 15.9004 63.5255C16.5775 63.4382 17.2764 63.5582 17.4839 62.6632C17.8115 62.0192 18.434 62.1174 18.98 62.1065C20.225 62.0847 21.4699 62.0301 22.7039 62.1065C26.2422 62.3357 29.715 61.6153 33.2205 61.5171C33.832 61.1023 34.8913 61.8009 35.1534 61.0587C35.3718 60.4474 34.6074 59.7816 34.3234 59.1158C33.0676 56.1251 33.0239 53.1562 34.5528 50.2528C34.935 49.5433 35.2954 48.7029 36.3547 48.7793C36.6059 48.8448 36.7915 48.9867 36.9444 49.194C37.3921 49.8926 36.9444 50.4602 36.6823 51.0714C35.5902 53.5601 35.3718 56.0596 36.6386 58.5482C37.3048 59.8799 38.2112 60.9823 39.7401 61.3752C43.1582 62.0301 46.6091 62.2157 50.0819 62.0956C50.9992 62.0629 51.8182 61.8882 52.4516 61.1897C52.7902 60.5348 52.397 59.9672 52.2223 59.3887C50.6607 54.1058 53.0632 48.812 57.9884 46.6399C58.589 46.378 59.1569 46.2142 59.7903 46.4762C60.1397 46.5635 60.4128 46.76 60.5766 47.0874C60.6312 47.2512 60.6312 47.4258 60.5766 47.5895C60.3254 48.0589 59.8012 48.1789 59.4408 48.4955C56.5141 49.7507 54.5921 51.8137 54.1006 55.0663C53.9478 56.1142 53.9805 57.1293 54.2863 58.1444C55.1381 60.9277 56.0336 61.6808 58.8948 61.4407C62.0945 61.1787 65.2506 61.8227 68.5923 61.79C67.948 61.7245 67.391 61.8882 67.0525 61.3425C66.9433 61.1023 66.9433 60.8622 67.0306 60.6112C67.7186 59.6288 68.8544 59.858 69.8045 59.6834C70.1212 59.6288 70.5143 59.6834 70.8638 59.5524C71.2023 59.2359 71.6064 59.0394 71.9886 58.8102C72.2944 58.581 72.5892 58.3518 72.895 58.1335C73.1462 58.0352 73.3318 58.1335 73.4956 58.319C74.0853 59.1376 72.8404 59.989 73.6813 61.0368C74.3802 59.6834 75.4286 58.6355 74.6969 57.031C74.675 56.8782 74.7187 56.7472 74.8279 56.6381V56.6708Z" fill="#803D3B"/>
<path d="M16.8395 57.2602C17.2545 58.0024 17.4947 58.7992 17.3418 59.6615C17.1453 60.753 17.7022 61.2769 18.696 61.2988C21.8193 61.3424 24.9535 61.3315 28.0768 61.2988C29.2671 61.2988 29.704 60.5238 29.6821 59.4323C29.6166 56.1141 29.562 52.785 29.4419 49.4669C29.3982 48.3208 29.42 47.3384 30.8834 47.2184C31.5059 47.1638 31.8226 46.8036 31.8553 46.2033C31.9099 45.1773 32.3577 44.5333 33.4279 44.4132C34.0504 44.3477 34.2906 43.933 34.4217 43.3763C34.7056 42.1756 35.5683 41.8591 36.6822 41.9901C37.0426 42.0337 37.403 42.1538 37.7634 42.1429C38.637 42.1211 39.3905 41.739 39.3905 40.8113C39.3905 39.7198 38.4841 39.8944 37.7524 39.9817C36.1034 40.1782 34.5964 40.2546 34.2142 38.0279C34.094 37.3075 33.3187 37.2311 32.6525 37.3621C31.069 37.6568 29.6821 37.8315 29.1361 35.6812C28.9177 34.8298 27.913 34.7862 27.5308 35.7249C27.1267 36.6963 26.5479 37.3294 25.5323 37.4713C24.5276 37.6132 25.161 38.8684 24.3529 39.0976C24.3747 38.4209 24.3529 37.7441 24.4402 37.0783C24.7569 34.4369 27.083 33.0179 29.6057 33.9239C30.3155 34.1749 30.9598 34.5351 30.8615 35.4738C30.7523 36.4452 31.1673 36.6745 32.0519 36.3579C32.587 36.1615 33.1549 36.0741 33.7118 35.9213C34.5964 35.6703 35.3281 35.9104 35.6229 36.7836C35.9833 37.8533 36.7041 38.017 37.676 37.9515C39.4014 37.8424 40.7556 38.4099 41.3126 40.2109C41.5746 41.0623 42.2736 40.975 42.9616 41.0186C44.0755 41.0841 45.3313 40.975 45.659 42.5031C45.7572 42.6122 45.79 42.7323 45.7791 42.8742C45.3423 43.4854 44.5451 43.671 44.0973 44.2713C43.4421 45.7667 43.6168 47.4039 43.3219 48.9539C43.1691 49.7616 43.1254 50.5802 42.7104 51.3115C41.8913 51.7372 41.5637 51.2133 41.3453 50.5693C40.6901 48.7028 40.0021 46.8582 39.4561 44.959C39.5543 44.5224 40.0676 44.4896 40.1987 44.2167C40.1222 44.2822 39.9802 44.4132 39.8055 44.5005C39.4342 44.7079 39.0192 44.7407 38.6152 44.8716C37.4248 45.4174 36.2454 45.9522 35.2953 46.8909C33.9739 47.142 33.2641 48.1352 32.7726 49.2049C32.3467 50.1327 32.1065 51.1696 31.7461 52.1192C31.0581 53.9202 31.9973 55.4265 32.3686 57.0528C32.445 57.3039 32.5215 57.5658 32.6088 57.8169C32.8491 58.9411 32.9146 60.0872 33.2313 61.2005C33.4279 61.8773 33.3405 62.4448 32.3904 62.4448C26.81 62.4339 21.2187 62.4448 15.6382 62.4448C15.4307 62.4448 15.398 62.292 15.3215 62.161C15.3215 61.5935 15.3434 61.0259 15.2888 60.4692C15.1796 59.3122 14.9393 58.1334 16.6539 57.9697C16.7194 57.9697 16.7521 57.5222 16.8067 57.282L16.8395 57.2602Z" fill="#E4C59E"/>
<path d="M62.5859 91.3587C64.1476 91.3806 65.7092 91.3915 67.2709 91.4133C68.1008 91.4242 68.898 91.5661 68.9199 92.6249C68.9526 93.771 68.1773 93.9456 67.2381 93.9456C58.0648 93.9238 48.9024 93.9238 39.7291 93.9238C38.79 93.9238 38.0146 93.7491 38.0583 92.603C38.091 91.5334 38.8882 91.4133 39.7291 91.4133C41.6075 91.3915 43.4749 91.3806 45.3532 91.3587C51.0975 90.8894 56.8417 91.1077 62.5859 91.3587Z" fill="#322C2B"/>
<path d="M59.692 46.8582C52.9649 48.7902 50.344 56.3106 54.4283 61.9646C53.4018 62.8051 51.2286 62.6304 50.617 61.6262C50.3549 61.1896 50.1693 60.6985 49.9508 60.2291C49.0663 57.7296 49.2301 55.2191 49.787 52.6868C50.2348 50.9513 51.1193 49.4451 52.2005 48.037C52.4735 47.6877 52.9103 47.7423 53.2707 47.6113C54.9416 46.0505 56.8199 44.8498 59.1023 44.3805C60.3254 45.0791 60.4455 45.603 59.6811 46.8582H59.692Z" fill="#803D3B"/>
<path d="M45.6809 42.7869C45.6809 42.6887 45.6809 42.5904 45.6918 42.4922C46.1286 42.6341 46.5764 42.9179 47.0023 42.8851C48.7387 42.7651 50.1583 43.027 50.8026 44.959C50.9119 45.2864 51.6654 45.472 52.1459 45.5811C53.4673 45.8977 53.9369 46.4216 52.8011 47.5349C52.4407 47.9606 52.0694 47.786 51.7091 47.5568C49.7433 46.2579 47.7995 44.9153 45.8665 43.5619C45.6044 43.3763 45.4297 43.1143 45.67 42.7869H45.6809Z" fill="#E4C59E"/>
<path d="M15.3544 62.1501C17.3201 62.5322 19.2967 62.292 21.2733 62.3139C24.7024 62.3575 28.1424 62.3357 31.5824 62.3139C32.0629 62.3139 32.7181 62.5649 33.0021 62.041C33.2314 61.6044 32.74 61.1896 32.5106 60.8076C31.8882 59.8143 31.5387 58.7556 31.5824 57.5658C31.7789 57.4676 31.9864 57.4239 32.1721 57.544C33.0021 58.0461 34.0723 60.884 33.832 61.9209C33.2314 62.6631 32.3905 62.6304 31.5496 62.6304C26.8647 62.6304 22.1688 62.6631 17.4839 62.6741C16.7959 62.4558 15.8567 63.1871 15.3762 62.1392L15.3544 62.1501Z" fill="#803D3B"/>
<path d="M45.6809 42.7869C48.3455 43.933 50.5952 45.723 52.812 47.5459C52.9759 47.5677 53.1287 47.6004 53.2926 47.6223C53.0741 47.8406 52.8666 48.0698 52.6482 48.2881C52.3643 48.3645 52.1022 48.5719 51.7746 48.4627C50.6061 47.6987 49.798 46.5089 48.6076 45.7558C47.0897 44.7953 45.5608 44.1185 43.737 44.8062C43.4313 44.4132 43.8026 43.9112 43.5295 43.5073C43.8462 42.0556 44.9492 42.9725 45.6809 42.7869Z" fill="#803D3B"/>
<path d="M78.8467 50.1218C78.3335 48.2881 78.0495 46.4107 77.8748 44.5224C77.7328 44.1731 77.9076 44.0967 78.2024 44.1295C78.6028 45.4174 79.5347 45.8722 80.9981 45.4938C79.5238 46.4544 78.3662 47.5349 79.1744 49.4451C79.0651 49.6743 78.9559 49.9035 78.8467 50.1218Z" fill="#E4C59E"/>
<path d="M63.8965 42.9725C64.6172 42.4267 65.338 41.881 66.0587 41.3352C66.2553 41.4225 66.4519 41.5098 66.6485 41.6081C64.8793 43.0707 63.1102 44.5442 61.341 46.0068C60.9807 45.9413 60.795 45.7012 60.7295 45.3519C61.1991 43.7802 62.5969 43.4527 63.8965 42.9834V42.9725Z" fill="#803D3B"/>
<path d="M59.6919 46.8582C59.7575 45.9741 59.8121 45.0899 59.1132 44.3805C59.1132 44.1949 59.1132 44.0203 59.1132 43.8347C59.3425 43.922 59.5827 43.9984 59.8121 44.0858C60.4455 44.4132 60.6311 44.959 60.5765 45.6248C60.5547 46.1924 61.0461 46.8363 60.3035 47.2839C60.096 47.142 59.8994 46.9892 59.6919 46.8473V46.8582Z" fill="#803D3B"/>
<path d="M71.4426 59.7707C70.2631 60.9713 68.6797 60.4038 67.3037 60.753C67.0634 60.9386 67.0634 61.1132 67.3037 61.2988C68.6032 61.5062 69.9683 61.3315 71.2242 61.8882C71.1586 62.0847 71.1368 62.2484 71.104 62.2484C67.7951 62.4449 64.4752 62.5431 61.1663 62.1938C59.9541 62.0628 58.7419 62.4449 57.5079 62.434C56.2848 62.434 55.4767 61.9864 54.7668 61.015C51.9056 57.0419 53.1724 51.0714 57.4533 48.6592C57.9993 48.3536 58.5781 48.1134 59.146 47.8515C59.8667 47.5459 60.3472 47.7751 60.6093 48.5064C60.8824 49.2813 61.2427 50.0127 61.341 50.8422C61.3847 52.1629 61.6796 53.4509 61.9853 54.7279C61.9635 55.0663 61.8761 55.3938 61.7997 55.7321C61.6359 56.5071 62.0945 55.7758 62.2147 55.9068C62.717 56.3215 63.2849 56.4525 63.9074 56.3434C64.2022 56.4416 64.4971 56.5508 64.7919 56.649C66.8559 57.4676 68.8435 58.4827 71.0167 58.9957C71.4862 59.1049 71.5955 59.3668 71.4644 59.7925L71.4426 59.7707Z" fill="#E4C59E"/>
<path d="M63.8964 56.3215C63.547 56.649 63.3176 57.282 62.7825 57.1947C62.2256 57.1074 62.2474 56.518 62.2692 56.0486C61.8979 55.7867 61.6468 55.4156 61.3847 55.0663C61.1553 53.7237 60.926 52.3812 60.6967 51.0386C60.4018 50.4601 60.6639 49.8707 60.6967 49.2922C60.3691 48.1243 60.6202 46.9237 60.4783 45.7449C60.5984 45.5156 60.7076 45.2755 61.0352 45.472C61.1444 45.6466 61.2536 45.8213 61.3628 45.9959C61.4502 49.0958 62.2583 52.0974 62.6515 55.1536C62.7607 55.9722 63.5579 55.8631 63.9073 56.3215H63.8964Z" fill="#803D3B"/>
<path d="M70.7764 54.1058C70.6235 51.377 69.1383 49.7507 66.5829 48.9976C66.157 48.8666 65.7639 48.6046 65.3489 48.1462C68.4831 49.4342 71.4644 49.9144 73.8779 46.6072C73.9434 46.7709 74.0198 46.9346 74.0853 47.1093C73.8342 47.4367 73.5939 47.7751 73.3209 48.0807C73.0479 48.3972 72.764 48.7138 72.4363 48.9648C71.2242 49.8708 70.7983 51.0605 71.104 52.534C71.1259 53.0907 71.5845 53.7347 70.7764 54.1167V54.1058Z" fill="#E4C59E"/>
<path d="M71.4425 59.7707C71.3005 59.1594 70.7545 59.2686 70.3286 59.1267C68.3957 58.4827 66.419 57.9042 64.77 56.6271C66.561 56.769 68.068 57.7732 69.7498 58.2753C70.4924 58.4936 71.1804 58.8975 71.9885 58.8429C71.8029 59.1485 71.6282 59.465 71.4425 59.7707Z" fill="#803D3B"/>
<path d="M78.2133 44.1185C78.1041 44.2495 77.9949 44.3805 77.8857 44.5115C77.6345 43.3763 76.5534 43.027 75.5487 42.2957C77.165 42.1866 77.8857 42.8742 78.2133 44.1185Z" fill="#E4C59E"/>
<path d="M74.828 56.6708C74.828 56.8018 74.817 56.9218 74.8061 57.0528C74.9372 58.2644 74.5004 58.8429 73.2226 58.4936C73.1134 58.3844 73.0042 58.2753 72.895 58.1771C73.3755 57.4676 74.0417 56.9873 74.828 56.6817V56.6708Z" fill="#803D3B"/>
<path d="M70.7764 54.1058C71.1477 53.6255 70.9293 53.0361 71.104 52.5231C71.4207 53.298 71.3879 54.0948 71.3552 54.968C70.7436 54.8698 70.7218 54.5096 70.7764 54.1058Z" fill="#E4C59E"/>
<path d="M61.0134 45.472C60.9151 45.5484 60.8277 45.6139 60.7295 45.6903C60.522 45.8649 60.3145 45.8649 60.1398 45.6357C60.0305 45.1227 59.9213 44.6097 59.8121 44.0967C61.1117 43.5182 62.2474 42.3066 63.8964 42.9724L61.0134 45.472Z" fill="#322C2B"/>
<path d="M39.0958 62.2593C34.6074 59.3232 33.7119 54.6515 36.6495 49.5651C36.857 48.0152 38.1894 47.5458 39.3033 46.9783C40.1223 46.5526 40.4499 47.3385 40.7229 47.9934C41.3017 49.3687 41.542 50.9077 42.6013 52.0647C42.776 52.4904 43.0163 52.9051 43.0053 53.3854C43.0163 53.8656 43.0053 54.3459 42.9944 54.5533C42.9726 55.0336 43.2019 54.8043 42.9944 54.8589C42.9507 54.8589 42.9398 54.8262 42.9507 54.717C43.0927 52.8287 43.4749 52.5122 45.3314 52.9597C46.4016 53.2217 47.2207 52.5886 48.1489 52.3485C49.4157 52.0101 49.6123 52.1411 49.7543 53.5055C49.1755 55.743 49.6232 57.9151 50.1146 60.0872C50.1911 60.3383 50.3986 60.5238 50.5078 60.7639C51.1521 62.1938 50.9883 62.4558 49.3939 62.4558C46.3689 62.4558 43.3439 62.4558 40.3189 62.4558C39.9148 62.4558 39.478 62.5868 39.1067 62.292L39.0958 62.2593Z" fill="#E4C59E"/>
<path d="M33.8211 61.9209C32.7509 60.633 32.4451 58.9521 31.5715 57.5659C31.5715 57.3585 31.5715 57.1402 31.5715 56.9328C30.6978 52.6104 32.0411 49.0085 35.1207 45.9632C36.2455 45.2428 37.3703 44.5224 38.4951 43.802C38.9101 44.0312 39.2159 44.3478 39.4343 44.7844C39.9476 45.7776 40.1769 46.6181 38.8446 47.2075C37.8617 47.6441 37.2611 48.6592 36.2564 49.1067C33.1331 52.7632 33.5481 57.7405 37.4358 62.2593C36.1363 62.4012 34.9459 62.6632 33.8211 61.91V61.9209Z" fill="#803D3B"/>
<path d="M73.2226 58.4827C73.7468 58.0025 74.2819 57.5222 74.8061 57.0419C76.1712 57.1074 76.3787 57.7623 75.778 58.8866C75.3631 59.6615 74.7624 60.371 74.7843 61.2988C74.817 62.5322 73.998 62.4776 73.2117 62.3357C72.3381 62.1938 71.9668 61.5498 72.207 60.7312C72.4473 59.9453 72.8732 59.2249 73.2226 58.4718V58.4827Z" fill="#E4C59E"/>
<path d="M36.2563 49.1176C36.6167 48.3317 37.3266 47.8624 37.9709 47.3494C39.8165 45.8758 39.8274 45.8867 38.4951 43.8129C39.0629 43.7037 39.4015 44.0421 39.7182 44.4241C39.8274 44.5005 39.8601 44.6097 39.8383 44.7407C40.57 46.4652 41.2252 48.2116 41.7494 50.0235C41.8805 50.471 41.8149 51.1259 42.5138 51.2569C42.8196 51.7154 42.634 52.0319 42.219 52.2829C41.3781 50.9622 40.985 49.4559 40.3953 48.0261C40.0676 47.2184 39.7073 47.1638 39.0083 47.5786C38.1019 48.1134 37.403 48.8775 36.6495 49.576C36.5184 49.4232 36.3874 49.2813 36.2563 49.1285V49.1176Z" fill="#803D3B"/>
<path d="M39.0958 62.2593C42.4811 62.292 45.8665 62.3248 49.2519 62.3357C49.6887 62.3357 50.3549 62.554 50.5078 62.0847C50.6716 61.5935 50.4859 60.9713 49.8525 60.6766C49.5577 60.5456 49.5577 60.2837 49.6887 60.0217C49.929 59.989 50.1802 59.9781 50.4204 60.0108C51.7418 62.5867 52.3861 62.9033 54.4283 61.9755C54.6794 62.554 54.2535 62.6086 53.8822 62.6086C49.1864 62.6086 44.4905 62.6086 39.7947 62.5649C39.5544 62.5649 39.3251 62.3684 39.0848 62.2593H39.0958Z" fill="#E4C59E"/>
<path d="M60.9806 49.3796L60.6857 51.0278C60.5001 50.2419 60.2708 49.456 60.1615 48.6592C60.0742 48.0043 59.7247 47.8078 59.135 47.8406C59.4735 47.5131 59.8885 47.5022 60.3254 47.5022C60.7731 48.0479 60.784 48.7465 60.9806 49.3796Z" fill="#803D3B"/>
<path d="M60.9806 49.3796C60.5547 48.8229 60.4564 48.1571 60.3254 47.5022C60.3254 47.4367 60.3254 47.3603 60.3144 47.2948C60.2598 46.7382 60.2052 46.1924 60.1506 45.6357C60.3472 45.6576 60.5438 45.6685 60.7403 45.6903C60.8168 46.9237 60.9042 48.1571 60.9806 49.3796Z" fill="#803D3B"/>
<path d="M67.3037 61.2988C66.8559 61.3643 66.4082 61.4188 65.8949 61.1569C66.2553 60.5456 66.8013 60.7312 67.3037 60.753C67.3037 60.9386 67.3037 61.1132 67.3037 61.2988Z" fill="#AF8260"/>
<path d="M42.219 52.272C42.3173 51.9337 42.4156 51.5953 42.5139 51.246L43.5295 43.5073C43.6278 43.9329 43.7261 44.3586 43.8244 44.7952C45.5826 45.3192 47.2644 46.0068 48.5748 47.3166C49.5577 48.288 50.6825 48.4518 51.9493 48.2007C52.2005 48.1134 52.4407 48.1243 52.6482 48.299C51.6544 49.6088 50.9228 51.0495 50.3331 52.5667C50.0819 52.6759 49.8962 52.5667 49.7324 52.3812C49.3174 51.0714 48.826 49.8271 47.4828 49.194C47.2534 48.9866 47.046 48.7683 46.7511 48.6155C44.8837 47.6441 44.5124 47.8078 44.0756 49.8707C43.6824 50.3728 43.9445 50.9841 43.8025 51.5189C43.606 52.2829 43.7807 53.3526 42.5467 53.4727C42.4375 53.0797 42.3173 52.6868 42.2081 52.2829L42.219 52.272Z" fill="#803D3B"/>
<path d="M35.1207 45.9632C35.0551 46.1597 35.0551 46.4107 34.935 46.5417C32.2267 49.4997 31.3531 53.0361 31.5715 56.9328C30.0317 53.3308 31.91 47.5131 35.1207 45.9632Z" fill="#803D3B"/>
<path d="M39.8384 44.7407C39.7947 44.6316 39.7619 44.5333 39.7183 44.4242C39.8821 43.9876 40.0022 43.5291 40.2206 43.1144C40.4718 42.6341 40.9414 42.5468 41.4437 42.6232C41.7823 42.6668 42.0443 42.8415 42.0443 43.2235C42.0443 43.7256 41.8478 44.1622 41.3454 44.3368C40.854 44.5115 40.3407 44.6097 39.8384 44.7516V44.7407Z" fill="#E4C59E"/>
<path d="M50.0491 52.2393C50.1474 52.3485 50.2348 52.4576 50.3331 52.5559C49.6997 55.0445 49.7324 57.5331 50.4313 59.9999C50.1911 60.2073 49.9508 60.2182 49.6997 60.0108C49.4157 57.7514 48.6513 55.5029 49.4485 53.2108C49.8089 52.9815 49.2519 52.1848 50.06 52.2284L50.0491 52.2393Z" fill="#E4C59E"/>
<path d="M51.9493 48.1898C50.5405 50.1655 50.5296 50.1873 48.7605 48.4191C47.6793 47.3385 46.3689 46.6508 45.0147 46.0068C44.4687 45.7449 43.8025 45.5921 43.8244 44.7844C43.9554 43.158 44.7963 43.1471 46.074 43.6601C48.4765 44.6206 50.6061 45.8759 51.9493 48.1898Z" fill="#803D3B"/>
<path d="M61.3737 55.0663C61.9198 55.1645 62.2474 55.4701 62.2583 56.0486C61.7123 56.3106 62.1928 56.9109 61.7887 57.3257C61.5048 56.5616 61.3082 55.8413 61.3737 55.0663Z" fill="#803D3B"/>
<path d="M58.9931 50.5475C59.2661 50.5256 59.5718 50.5802 59.5063 50.9077C59.4517 51.2133 59.1241 51.3879 58.8183 51.4534C58.5016 51.5298 58.3051 51.3443 58.3051 51.0496C58.316 50.6457 58.7091 50.6457 58.9931 50.5366V50.5475Z" fill="#AF8260"/>
<path d="M59.1787 59.3886C59.1569 59.7707 58.8839 59.8798 58.5672 59.9126C58.2833 59.9344 58.0321 59.8143 58.0212 59.5196C57.9993 59.1485 58.2942 59.0066 58.6218 58.9739C58.9057 58.952 59.0914 59.1048 59.1787 59.3886Z" fill="#AF8260"/>
<path d="M50.0491 52.2393C49.8416 52.5668 49.645 52.8942 49.4375 53.2217C48.2144 52.3703 47.4172 53.6692 46.4125 53.8656C45.6808 54.0075 45.0802 55.0772 44.4577 53.6037C44.2284 53.0579 43.6605 53.5819 43.5622 54.0839C43.4312 54.7388 43.726 55.2846 44.0864 55.8085C44.283 56.0923 44.6215 56.4198 44.1956 56.7363C43.868 56.9764 43.5076 56.78 43.1909 56.5726C41.9569 55.743 42.492 54.5533 42.5466 53.4618C43.3438 52.2175 42.8961 50.6894 43.4421 49.3905C43.9226 49.2595 44.3594 49.576 44.7963 49.5324C45.5716 49.456 46.62 50.1873 47.0459 48.8338C47.1442 48.5173 47.6028 48.7247 47.8977 48.7247C49.0225 49.6524 50.06 50.613 50.0491 52.2393Z" fill="#E4C59E"/>
<path d="M41.7495 58.8102C41.7058 59.1922 41.3563 59.2686 41.0833 59.3559C40.7994 59.4541 40.5482 59.2577 40.5482 58.963C40.5482 58.6028 40.8322 58.4172 41.1707 58.3954C41.4328 58.3735 41.673 58.4936 41.7495 58.8102Z" fill="#AF8260"/>
<path d="M46.7729 53.178C46.7292 53.56 46.3798 53.6364 46.1068 53.7238C45.8228 53.822 45.5717 53.6255 45.5717 53.3308C45.5717 52.9706 45.8556 52.7851 46.1941 52.7632C46.4562 52.7414 46.6965 52.8615 46.7729 53.178Z" fill="#AF8260"/>
<path d="M40.2205 50.4165C39.9912 50.7876 39.5981 50.8531 39.2049 50.864C38.9428 50.864 38.8882 50.6348 38.9865 50.4383C39.1612 50.0672 39.4998 49.9908 39.8711 50.0345C40.0676 50.0563 40.2533 50.1327 40.2205 50.4274V50.4165Z" fill="#AF8260"/>
<path d="M47.8977 48.7247C47.3517 49.0303 46.8384 49.3359 47.6575 49.9253C48.0943 50.2528 48.6949 50.482 48.6076 51.2351C48.0069 51.5735 47.7667 51.0277 47.4609 50.7439C46.9913 50.3182 46.4999 50.1109 45.8993 50.3619C44.7417 50.8531 44.01 50.3292 43.4421 49.3796C43.5295 46.4107 43.9554 46.1815 46.5764 47.6877C47.0569 47.9715 47.581 48.2116 47.8977 48.7137V48.7247Z" fill="#E4C59E"/>
</g>
<defs>
<clipPath id="clip0_24_34">
<rect width="107" height="107" fill="white"/>
</clipPath>
</defs>
</svg>
